<?xml version="1.0" standalone="no"?>
<!DOCTYPE svg PUBLIC "-//W3C//DTD SVG 20010904//EN"
 "http://www.w3.org/TR/2001/REC-SVG-20010904/DTD/svg10.dtd">
<svg version="1.0" xmlns="http://www.w3.org/2000/svg"
 width="336.000000pt" height="119.000000pt" viewBox="0 0 336.000000 119.000000"
 preserveAspectRatio="xMidYMid meet">
<metadata>
Created by potrace 1.16, written by Peter Selinger 2001-2019
</metadata>
<g transform="translate(0.000000,119.000000) scale(0.100000,-0.100000)"
fill="#000000" stroke="none">
<path d="M270 858 l-275 -278 275 -275 275 -275 278 277 277 278 -272 276
c-150 152 -275 276 -278 276 -3 0 -129 -125 -280 -279z m397 -398 l-121 -121
-120 121 -121 120 241 0 241 0 -120 -120z"/>
<path d="M1371 858 c-4 -13 -11 -40 -15 -60 -6 -35 -9 -38 -41 -38 -34 0 -35
-1 -35 -40 0 -38 2 -40 30 -40 l30 0 1 -182 c0 -215 7 -245 62 -272 30 -14 50
-17 93 -11 l54 6 0 40 0 39 -46 -2 c-30 -2 -48 2 -54 12 -6 8 -10 95 -10 193
l0 177 50 0 50 0 0 40 0 40 -50 0 -50 0 0 60 0 60 -30 0 c-22 0 -33 -6 -39
-22z"/>
<path d="M1975 759 c-56 -13 -113 -63 -141 -123 -19 -42 -24 -68 -24 -140 0
-111 13 -155 63 -212 30 -34 51 -48 95 -60 108 -32 229 1 279 75 29 43 29 47
-4 55 -16 4 -35 9 -44 12 -10 2 -20 -5 -26 -19 -23 -50 -132 -74 -193 -42 -35
18 -58 59 -66 117 l-6 43 187 -3 188 -3 -5 73 c-11 176 -132 265 -303 227z
m134 -82 c33 -17 59 -55 67 -99 l6 -38 -136 0 c-154 0 -152 -1 -116 78 13 29
30 47 52 57 41 18 95 19 127 2z"/>
<path d="M3000 761 c-90 -19 -140 -73 -140 -150 0 -39 5 -49 43 -85 36 -35 58
-46 144 -70 131 -36 164 -67 133 -126 -32 -60 -212 -50 -242 15 -11 24 -15 26
-52 19 -50 -8 -49 -7 -41 -34 25 -79 126 -127 246 -117 124 10 189 65 189 160
0 87 -44 125 -195 167 -107 29 -125 42 -125 86 0 31 4 37 37 51 65 26 183 -1
183 -42 0 -11 12 -15 45 -15 41 0 45 2 45 24 0 31 -45 85 -85 102 -40 16 -140
25 -185 15z"/>
<path d="M1610 490 l0 -270 50 0 50 0 0 270 0 270 -50 0 -50 0 0 -270z"/>
<path d="M2320 754 c0 -5 150 -422 188 -522 3 -9 22 -12 60 -10 l56 3 98 260
c53 143 97 264 97 268 1 4 -22 7 -50 5 l-51 -3 -32 -90 c-18 -50 -52 -148 -76
-218 l-43 -127 -71 218 -72 217 -52 3 c-29 2 -52 0 -52 -4z"/>
</g>
</svg>
